<?xml version="1.0" standalone="no"?>
<!DOCTYPE svg PUBLIC "-//W3C//DTD SVG 20010904//EN"
 "http://www.w3.org/TR/2001/REC-SVG-20010904/DTD/svg10.dtd">
<svg version="1.0" xmlns="http://www.w3.org/2000/svg"
 width="600.000000pt" height="600.000000pt" viewBox="0 0 600.000000 600.000000"
 preserveAspectRatio="xMidYMid meet">
<metadata>
Created by potrace 1.11, written by Peter Selinger 2001-2013
</metadata>
<g transform="translate(0.000000,600.000000) scale(0.100000,-0.100000)"
fill="#000000" stroke="none">
<path d="M3699 4914 c-51 -77 -143 -214 -206 -307 -63 -92 -116 -174 -120
-182 -3 -10 103 -124 330 -353 185 -185 428 -430 540 -544 167 -170 208 -207
226 -203 13 2 64 30 114 61 51 31 102 62 114 68 13 6 23 14 23 19 0 4 4 7 10
7 11 0 349 206 370 226 12 12 -30 58 -317 347 -183 182 -480 482 -661 666
l-330 333 -93 -138z m252 -298 c37 -50 37 -84 1 -119 -35 -34 -63 -34 -121 -1
l-46 27 23 -25 c23 -25 24 -39 7 -108 -10 -41 -18 -89 -17 -102 1 -25 -2 -23
-48 23 -45 45 -48 55 -22 61 13 4 22 25 35 84 22 103 12 113 -52 50 -38 -38
-48 -54 -46 -76 2 -24 0 -27 -14 -18 -9 6 -33 31 -55 55 l-39 43 30 0 c24 0
48 18 126 96 82 80 97 101 97 127 l0 31 56 -54 c31 -30 69 -73 85 -94z m93
-261 c33 -31 42 -70 25 -106 l-14 -29 -40 21 c-48 25 -71 46 -32 28 30 -14 37
-10 54 32 9 21 8 31 -3 48 -20 28 -48 27 -79 -4 -29 -29 -30 -35 -12 -55 10
-12 9 -12 -4 -2 -14 10 -18 6 -32 -29 -15 -37 -15 -44 -2 -70 9 -17 28 -33 48
-39 l32 -10 -39 5 c-137 16 -130 205 9 235 39 8 59 3 89 -25z m111 -115 c21
-22 26 -33 17 -38 -6 -5 -27 -44 -46 -87 -34 -77 -65 -110 -85 -89 -5 5 8 51
31 107 22 54 40 107 41 117 2 27 8 25 42 -10z m121 -121 c14 -16 15 -21 4 -17
-8 3 -26 1 -40 -3 -22 -8 -23 -8 -7 5 9 7 17 18 17 25 0 16 4 14 26 -10z m82
-97 c-8 -1 -29 -41 -47 -87 -28 -70 -39 -86 -63 -94 -38 -13 -37 -4 12 119 22
55 40 108 40 117 0 13 9 8 36 -18 22 -21 30 -35 22 -37z m101 -86 l22 -23 -23
4 c-15 3 -24 12 -25 24 -2 24 -1 24 26 -5z m146 -26 c0 -16 -6 -26 -19 -28
-25 -5 -39 12 -31 38 10 31 50 24 50 -10z m-185 6 c0 -2 -7 -7 -16 -10 -8 -3
-12 -2 -9 4 6 10 25 14 25 6z m-55 -26 c-3 -5 -12 -10 -18 -10 -7 0 -6 4 3 10
19 12 23 12 15 0z m120 -127 c-44 -44 -75 -83 -75 -95 0 -17 -6 -14 -35 18
-37 40 -44 57 -21 48 18 -7 136 113 136 138 0 17 4 16 35 -7 l34 -27 -74 -75z
m177 -24 c28 -15 51 -67 43 -98 -12 -46 -23 -52 -61 -29 -38 22 -43 28 -16 21
34 -8 59 88 26 101 -32 12 -53 5 -78 -25 -25 -30 -26 -32 -9 -45 17 -12 16
-13 -3 -8 -18 5 -24 -1 -34 -30 -10 -30 -9 -40 6 -66 10 -16 30 -34 44 -39 21
-8 22 -10 5 -10 -33 -1 -85 37 -101 74 -44 105 76 208 178 154z"/>
<path d="M3825 4620 l-60 -61 25 -19 c36 -28 78 -25 112 7 34 33 36 72 6 108
l-23 26 -60 -61z"/>
<path d="M3172 4365 c-11 -14 -19 -33 -17 -43 2 -9 4 -20 4 -24 1 -10 1212
-1218 1232 -1228 26 -14 44 -12 68 8 32 26 34 61 7 96 -22 29 -804 814 -1088
1094 -105 103 -130 122 -156 122 -21 0 -37 -8 -50 -25z"/>
<path d="M3020 4109 c-52 -28 -160 -85 -240 -127 -80 -42 -167 -89 -195 -103
-27 -15 -108 -57 -180 -94 -71 -38 -152 -80 -180 -95 -27 -15 -100 -53 -161
-84 -85 -43 -114 -63 -123 -84 -6 -15 -13 -97 -16 -182 -8 -249 -22 -344 -90
-605 -98 -376 -309 -864 -553 -1280 -49 -84 -57 -92 -117 -110 -71 -23 -128
-77 -141 -136 -8 -37 -6 -102 4 -129 11 -30 -73 -111 945 900 l800 796 2 89
c2 103 17 145 66 192 46 42 95 61 154 58 60 -3 91 -14 134 -50 97 -82 98 -231
2 -324 -49 -47 -104 -60 -202 -46 l-57 7 -85 -83 c-430 -423 -1657 -1644
-1657 -1650 0 -9 76 -23 115 -20 76 5 145 65 174 152 17 54 48 78 216 169 316
173 726 350 995 430 41 12 102 30 135 40 210 64 459 101 700 104 131 2 149 8
179 60 19 32 305 561 391 721 26 50 62 117 80 150 18 33 58 109 89 169 l58
109 -114 113 c-62 63 -309 312 -548 554 -346 350 -440 440 -460 440 -14 -1
-68 -24 -120 -51z"/>
</g>
</svg>
